<mxfile host="app.diagrams.net" modified="2023-11-06T09:10:49.428Z" agent="Mozilla/5.0 (Windows NT 10.0; Win64; x64) AppleWebKit/537.36 (KHTML, like Gecko) Chrome/119.0.0.0 Safari/537.36" version="22.0.8" etag="v9ukRRHFJIVLqRF2Ii7g" type="github">
  <diagram name="Page-1" id="wT9G0qkxF0lg01WAujIx">
    <mxGraphModel>
      <root>
        <mxCell id="0" />
        <mxCell id="1" parent="0" />
      </root>
    </mxGraphModel>
  </diagram>
</mxfile>
